<?xml version="1.0" standalone="no"?>
<!DOCTYPE svg PUBLIC "-//W3C//DTD SVG 20010904//EN"
 "http://www.w3.org/TR/2001/REC-SVG-20010904/DTD/svg10.dtd">
<svg version="1.0" xmlns="http://www.w3.org/2000/svg"
 width="512.000000pt" height="512.000000pt" viewBox="0 0 512.000000 512.000000"
 preserveAspectRatio="xMidYMid meet">
<metadata>
Created by potrace 1.14, written by Peter Selinger 2001-2017
</metadata>
<g transform="translate(0.000000,512.000000) scale(0.100000,-0.100000)"
fill="#000000" stroke="none">
<path d="M2470 4723 c-1 -23 -1 -4257 0 -4304 l0 -36 453 0 453 -1 1 164 1
164 -259 0 -259 0 0 1850 c0 1755 1 1850 18 1851 9 0 125 2 257 2 l240 2 1
163 1 162 -454 0 c-425 0 -453 -1 -453 -17z"/>
<path d="M3744 4578 l1 -163 245 -2 c135 -1 251 -2 258 -2 9 -1 12 -378 12
-1851 l0 -1850 -259 0 -259 0 1 -163 2 -162 453 -1 c434 -1 452 0 452 17 0 11
1 975 1 2144 0 1169 -1 2141 -1 2160 l0 35 -454 0 -454 0 2 -162z"/>
<path d="M993 4491 c-281 -96 -447 -308 -507 -646 -21 -118 -22 -2389 -1
-2514 59 -351 245 -578 544 -662 105 -30 109 -30 271 -34 161 -4 266 12 378
58 206 83 355 243 426 458 46 139 58 247 59 572 1 165 -1 304 -5 310 -4 6 -76
10 -202 11 l-196 1 0 -300 c0 -165 -5 -329 -11 -364 -5 -36 -25 -96 -43 -135
-71 -150 -196 -226 -377 -227 -230 -3 -386 134 -423 368 -9 58 -11 370 -11
1228 2 1062 3 1155 19 1215 57 211 198 321 410 321 175 0 301 -71 374 -210 54
-103 60 -146 61 -463 l1 -238 200 0 c182 1 200 2 201 18 4 60 0 466 -5 507
-39 345 -180 573 -427 689 -126 60 -166 66 -424 66 -225 -1 -232 -2 -312 -29z"/>
</g>
</svg>
